<svg id="Layer_1" data-name="Layer 1" xmlns="http://www.w3.org/2000/svg" xmlns:xlink="http://www.w3.org/1999/xlink" viewBox="0 0 1756.52 1083.1"><defs><style>.cls-1{fill:none;}.cls-2{fill:url(#Degradado_sin_nombre_8);}.cls-3{fill:#171717;}.cls-4{fill:#64c8d0;}.cls-5{clip-path:url(#clip-path);}.cls-6{fill:#ee2356;}.cls-7{fill:#232323;}</style><radialGradient id="Degradado_sin_nombre_8" cx="729.07" cy="335.15" r="509.94" gradientTransform="translate(47.04 238.08) scale(1.17 0.75)" gradientUnits="userSpaceOnUse"><stop offset="0" stop-color="#fff"/><stop offset="0.59" stop-color="#fdfdfd"/><stop offset="0.85" stop-color="#f6f6f6"/><stop offset="1" stop-color="#ededee"/></radialGradient><clipPath id="clip-path" transform="translate(197.53 189.44)"><rect class="cls-1" width="1400" height="600"/></clipPath></defs><rect class="cls-2" x="197.53" y="189.44" width="1400" height="600"/><circle class="cls-3" cx="538.26" cy="269.3" r="8.38"/><path class="cls-4" d="M1243.79,333.85a8.38,8.38,0,1,1-11.85,0A8.38,8.38,0,0,1,1243.79,333.85Z" transform="translate(197.53 189.44)"/><g class="cls-5"><path class="cls-6" d="M439.65,507.5,288.46,658.68a8,8,0,0,1-11.28,0h0a8,8,0,0,1,0-11.28L428.36,496.21a8,8,0,0,1,11.29,0h0A8,8,0,0,1,439.65,507.5Z" transform="translate(197.53 189.44)"/><path class="cls-4" d="M1436.32,152.59,1285.14,303.78a8,8,0,0,1-11.28,0h0a8,8,0,0,1,0-11.29L1425,141.31a8,8,0,0,1,11.28,0h0A8,8,0,0,1,1436.32,152.59Z" transform="translate(197.53 189.44)"/><path class="cls-4" d="M190.49,399.6-25.67,615.77a8,8,0,0,1-11.29,0h0a8,8,0,0,1,0-11.29L179.2,388.31a8,8,0,0,1,11.29,0h0A8,8,0,0,1,190.49,399.6Z" transform="translate(197.53 189.44)"/><path class="cls-3" d="M1422.63-141.77,1122.12,158.74a8,8,0,0,1-11.29,0h0a8,8,0,0,1,0-11.29l300.51-300.51a8,8,0,0,1,11.29,0h0A8,8,0,0,1,1422.63-141.77Z" transform="translate(197.53 189.44)"/><path class="cls-6" d="M1512-175.81,1211.43,124.7a8,8,0,0,1-11.28,0h0a8,8,0,0,1,0-11.29L1500.66-187.1a8,8,0,0,1,11.29,0h0A8,8,0,0,1,1512-175.81Z" transform="translate(197.53 189.44)"/><path class="cls-4" d="M116.6,163.14-183.91,463.65a8,8,0,0,1-11.29,0h0a8,8,0,0,1,0-11.29L105.32,151.85a8,8,0,0,1,11.28,0h0A8,8,0,0,1,116.6,163.14Z" transform="translate(197.53 189.44)"/><path class="cls-7" d="M1440.64,321.47l-356.11,356.1a8,8,0,0,1-11.28,0h0a8,8,0,0,1,0-11.28l356.11-356.11a8,8,0,0,1,11.28,0h0A8,8,0,0,1,1440.64,321.47Z" transform="translate(197.53 189.44)"/><path class="cls-7" d="M1556.64,274.65l-356.1,356.1a8,8,0,0,1-11.29,0h0a8,8,0,0,1,0-11.28l356.11-356.11a8,8,0,0,1,11.28,0h0A8,8,0,0,1,1556.64,274.65Z" transform="translate(197.53 189.44)"/><path class="cls-7" d="M310.82,119.69-45.29,475.8a8,8,0,0,1-11.28,0h0a8,8,0,0,1,0-11.29L299.53,108.4a8,8,0,0,1,11.29,0h0A8,8,0,0,1,310.82,119.69Z" transform="translate(197.53 189.44)"/><path class="cls-7" d="M312.52,535.22-43.58,891.33a8,8,0,0,1-11.29,0h0a8,8,0,0,1,0-11.29L301.24,523.93a8,8,0,0,1,11.28,0h0A8,8,0,0,1,312.52,535.22Z" transform="translate(197.53 189.44)"/></g></svg>